<svg width="256" height="256" viewBox="0 0 256 256" fill="none" xmlns="http://www.w3.org/2000/svg">
  <defs>
    <linearGradient id="pink" x1="52" y1="44" x2="202" y2="211" gradientUnits="userSpaceOnUse">
      <stop stop-color="#FF78B8"/>
      <stop offset="0.55" stop-color="#FF4F9A"/>
      <stop offset="1" stop-color="#C82E7A"/>
    </linearGradient>
    <linearGradient id="box" x1="80" y1="70" x2="177" y2="184" gradientUnits="userSpaceOnUse">
      <stop stop-color="#1A1A22"/>
      <stop offset="1" stop-color="#09090C"/>
    </linearGradient>
    <filter id="shadow" x="20" y="20" width="216" height="216" filterUnits="userSpaceOnUse" color-interpolation-filters="sRGB">
      <feDropShadow dx="0" dy="12" stdDeviation="12" flood-color="#000000" flood-opacity="0.35"/>
    </filter>
  </defs>
  <g filter="url(#shadow)">
    <rect x="34" y="34" width="188" height="188" rx="54" fill="url(#box)" stroke="#343440" stroke-width="2"/>
    <path d="M128 53L191 88V160L128 196L65 160V88L128 53Z" fill="#111117" stroke="url(#pink)" stroke-width="5" stroke-linejoin="round"/>
    <path d="M128 53V196M65 88L128 124L191 88" stroke="#FF4F9A" stroke-opacity="0.28" stroke-width="3"/>
    <path d="M83 112C83 98.7452 93.7452 88 107 88H149C162.255 88 173 98.7452 173 112V139C173 151.703 162.703 162 150 162H143L132 150H124L113 162H106C93.2975 162 83 151.703 83 139V112Z" fill="url(#pink)"/>
    <path d="M100 121H120M110 111V131" stroke="#0B0B0F" stroke-width="8" stroke-linecap="round"/>
    <circle cx="148" cy="116" r="7" fill="#0B0B0F"/>
    <circle cx="160" cy="129" r="7" fill="#0B0B0F"/>
    <path d="M123 143C126 146 130 147 134 143" stroke="#0B0B0F" stroke-width="4" stroke-linecap="round"/>
    <circle cx="110" cy="100" r="3" fill="#FFE3F0" fill-opacity="0.9"/>
    <circle cx="151" cy="101" r="3" fill="#FFE3F0" fill-opacity="0.9"/>
  </g>
</svg>
